<?xml version="1.0" encoding="utf-8"?>
<!-- Generator: Adobe Illustrator 24.3.0, SVG Export Plug-In . SVG Version: 6.00 Build 0)  -->
<svg version="1.1" id="Layer_1" xmlns="http://www.w3.org/2000/svg" xmlns:xlink="http://www.w3.org/1999/xlink" x="0px" y="0px"
	 viewBox="0 0 70.9 70.9" filter="invert(100%)" style="enable-background:new 0 0 70.9 70.9;" xml:space="preserve">
<g>
	<path d="M34.4,56.9c-5.6,0-10.6-3.5-12.6-8.7c-1.8,0.9-3.8,1.4-5.9,1.4c-7.4,0-13.5-6-13.5-13.5c0-7.4,6-13.5,13.5-13.5
		c1.3,0,2.6,0.2,3.8,0.6c1.8-5.5,6.9-9.2,12.8-9.2c2.9,0,5.6,0.9,7.9,2.6c2.9-1.7,6.1-2.6,9.4-2.6c10.2,0,18.6,8.3,18.6,18.6
		s-8.3,18.6-18.6,18.6c-1.4,0-2.7-0.2-4.1-0.5C43.3,54.5,39,56.9,34.4,56.9z M22.5,45.3c0.1,0,0.3,0,0.4,0.1
		c0.3,0.1,0.6,0.4,0.7,0.8c1.2,4.9,5.7,8.4,10.7,8.4c4.1,0,7.8-2.2,9.8-5.8c0.3-0.5,0.8-0.7,1.4-0.6c1.5,0.4,2.9,0.6,4.4,0.6
		c8.9,0,16.2-7.3,16.2-16.2s-7.3-16.2-16.2-16.2c-3.2,0-6.2,0.9-8.9,2.7c-0.4,0.3-1,0.3-1.4-0.1c-2-1.7-4.5-2.6-7.1-2.6
		c-5.2,0-9.7,3.6-10.8,8.6c-0.1,0.3-0.3,0.6-0.6,0.8s-0.7,0.2-1,0c-1.3-0.5-2.7-0.8-4.2-0.8C9.8,25,4.8,30,4.8,36.1
		c0,6.1,5,11.1,11.1,11.1c2.1,0,4.2-0.6,5.9-1.7C22,45.3,22.3,45.3,22.5,45.3z"/>
</g>
</svg>
