<?xml version="1.0" encoding="utf-8"?>
<!-- Generator: Adobe Illustrator 24.3.0, SVG Export Plug-In . SVG Version: 6.00 Build 0)  -->
<svg version="1.1" id="Layer_1" xmlns="http://www.w3.org/2000/svg" xmlns:xlink="http://www.w3.org/1999/xlink" x="0px" y="0px"
	 viewBox="0 0 70.9 70.9" filter="invert(100%)" style="enable-background:new 0 0 70.9 70.9;" xml:space="preserve">
<style type="text/css">
	.st0{fill:none;stroke:#000000;stroke-width:3;stroke-linecap:round;stroke-miterlimit:10;}
</style>
<g>
	<g>
		<g>
			<path d="M34.4,48.6c-5.7,0-10.6-3.5-12.6-8.7c-1.8,0.9-3.8,1.4-5.9,1.4c-7.4,0-13.5-6-13.5-13.5s6-13.5,13.5-13.5
				c1.3,0,2.6,0.2,3.8,0.6c1.8-5.5,6.9-9.2,12.8-9.2c2.9,0,5.6,0.9,7.9,2.6c2.9-1.7,6.1-2.6,9.4-2.6C60,5.7,68.4,14,68.4,24.2
				s-8.3,18.6-18.6,18.6c-1.4,0-2.7-0.2-4.1-0.5C43.3,46.2,39.1,48.6,34.4,48.6z M22.5,37c0.1,0,0.3,0,0.4,0.1
				c0.3,0.1,0.6,0.4,0.7,0.8c1.2,4.9,5.7,8.4,10.8,8.4c4.1,0,7.8-2.2,9.8-5.8c0.3-0.5,0.8-0.7,1.4-0.6c1.5,0.4,2.9,0.6,4.4,0.6
				c8.9-0.1,16.1-7.3,16.1-16.3S58.8,8,49.9,8c-3.2,0-6.2,0.9-8.9,2.7c-0.4,0.3-1,0.3-1.4-0.1c-2-1.7-4.5-2.6-7.1-2.6
				c-5.2,0-9.7,3.6-10.8,8.6c-0.1,0.3-0.3,0.6-0.6,0.8s-0.7,0.2-1,0c-1.3-0.5-2.7-0.8-4.2-0.8c-6.1,0-11.1,5-11.1,11.1
				s5,11.1,11.1,11.1c2.1,0,4.2-0.6,5.9-1.7C22.1,37,22.3,37,22.5,37z"/>
		</g>
	</g>
	<line class="st0" x1="17.7" y1="61.3" x2="17.7" y2="31.4"/>
	<line class="st0" x1="29.2" y1="65.2" x2="29.2" y2="35.3"/>
	<line class="st0" x1="40.9" y1="63.1" x2="40.8" y2="30.3"/>
	<line class="st0" x1="52.3" y1="63.8" x2="52.3" y2="33.9"/>
</g>
</svg>
