<?xml version="1.0" encoding="utf-8"?>
<!-- Generator: Adobe Illustrator 24.3.0, SVG Export Plug-In . SVG Version: 6.00 Build 0)  -->
<svg version="1.1" id="Layer_1" xmlns="http://www.w3.org/2000/svg" xmlns:xlink="http://www.w3.org/1999/xlink" x="0px" y="0px"
	 viewBox="0 0 70.9 70.9" filter="invert(100%)" style="enable-background:new 0 0 70.9 70.9;" xml:space="preserve">
<path d="M49.9,4.9c-3.3,0-6.6,0.9-9.4,2.6c-2.3-1.7-5.1-2.6-7.9-2.6c-5.9,0-11,3.7-12.8,9.2c-1.2-0.4-2.5-0.6-3.8-0.6
	c-7.4,0-13.5,6-13.5,13.5c0,4.7,2.4,8.8,6,11.2c2.1,1.4,4.7,2.3,7.4,2.3c2,0,4.1-0.5,5.9-1.4c0.1,0.3,0.2,0.6,0.3,0.8
	c1.5,3.3,4.2,5.7,7.5,7c0.2,0.1,0.4,0.1,0.6,0.2L26.8,53l3.8,2.6l-3.8,10.3l10.9-9.6L32.2,53l5.4-5.6l0,0c2.6-0.6,4.9-2,6.6-4
	c0.5-0.6,1-1.2,1.5-1.9c0.3,0.1,0.6,0.1,1,0.2c1.1,0.2,2.1,0.3,3.2,0.3c10.2,0,18.6-8.3,18.6-18.5C68.4,13.3,60.1,4.9,49.9,4.9z
	 M60.6,35.6c-2.9,2.5-6.6,4.1-10.7,4.1c-0.1,0-0.2,0-0.3,0c-0.2,0-0.5,0-0.7,0c-0.9-0.1-1.9-0.2-2.8-0.5c-0.2,0-0.3-0.1-0.5-0.1
	c-0.5-0.1-1.1,0.1-1.4,0.6c-0.4,0.7-0.8,1.3-1.4,1.9c-2.1,2.4-5.1,3.9-8.4,3.9c-5,0-9.3-3.3-10.7-8.1c0-0.1-0.1-0.2-0.1-0.3
	c-0.1-0.4-0.4-0.7-0.7-0.8c-0.1-0.1-0.3-0.1-0.4-0.1c-0.2,0-0.4,0.1-0.6,0.2c-1.8,1.1-3.8,1.7-5.9,1.7c-2.2,0-4.2-0.6-6-1.8
	c-2.4-1.6-4.2-4-4.9-6.9c-0.2-0.8-0.3-1.6-0.3-2.4c0-6.1,5-11.1,11.1-11.1c1.4,0,2.8,0.3,4.2,0.8c0.3,0.1,0.7,0.1,1,0
	c0.3-0.2,0.5-0.4,0.6-0.8c1.1-5.1,5.6-8.6,10.8-8.6c2.6,0,5.1,0.9,7.1,2.6c0.4,0.3,1,0.4,1.4,0.1c2.6-1.7,5.7-2.7,8.9-2.7
	c8.9,0,16.2,7.3,16.2,16.2C66.1,28.3,63.9,32.6,60.6,35.6z"/>
</svg>
