<?xml version="1.0" encoding="utf-8"?>
<!-- Generator: Adobe Illustrator 24.3.0, SVG Export Plug-In . SVG Version: 6.00 Build 0)  -->
<svg version="1.1" id="Layer_1" xmlns="http://www.w3.org/2000/svg" xmlns:xlink="http://www.w3.org/1999/xlink" x="0px" y="0px"
	 viewBox="0 0 70.9 70.9" style="enable-background:new 0 0 70.9 70.9;" xml:space="preserve">
<style type="text/css">
	.st0{fill:#FFFFFF;stroke:#FFFFFF;stroke-width:3;stroke-miterlimit:10;}
</style>
<g>
	<g>
		<path class="st0" d="M36.1,50.7c-8.3,0-15-6.8-15-15s6.8-15,15-15s15,6.5,15,14.9S44.4,50.7,36.1,50.7z M36.1,23.5
			c-6.7,0-12.1,5.4-12.1,12.1s5.4,12.1,12.1,12.1s12.1-5.4,12.1-12.1C48.2,28.9,42.8,23.5,36.1,23.5z"/>
	</g>
	<g>
		<path class="st0" d="M36.1,14.8c-0.8,0-1.5-0.6-1.5-1.5V7c0-0.8,0.6-1.5,1.5-1.5c0.8,0,1.5,0.6,1.5,1.5v6.3
			C37.6,14.2,36.9,14.8,36.1,14.8z"/>
	</g>
	<g>
		<path class="st0" d="M51.1,22.5c-0.4,0-0.8-0.1-1-0.4c-0.6-0.6-0.6-1.5,0-2.2l5.4-5.4c0.6-0.6,1.5-0.6,2.2,0s0.6,1.5,0,2.2
			l-5.4,5.4C51.9,22.4,51.5,22.5,51.1,22.5z"/>
	</g>
	<g>
		<path class="st0" d="M18.6,22.5c-0.4,0-0.8-0.1-1-0.4l-5.4-5.4c-0.6-0.6-0.6-1.5,0-2.2s1.5-0.6,2.2,0l5.4,5.4
			c0.6,0.6,0.6,1.5,0,2.2C19.4,22.4,19,22.5,18.6,22.5z"/>
	</g>
	<g>
		<path class="st0" d="M34.8,65.5c-0.8,0-1.5-0.6-1.5-1.5v-6.3c0-0.8,0.6-1.5,1.5-1.5c0.8,0,1.5,0.6,1.5,1.5v6.3
			C36.3,64.8,35.7,65.5,34.8,65.5z"/>
	</g>
	<g>
		<path class="st0" d="M14.4,56.9c-0.4,0-0.8-0.1-1-0.4c-0.6-0.6-0.6-1.5,0-2.2l5.4-5.4c0.6-0.6,1.5-0.6,2.2,0
			c0.6,0.6,0.6,1.5,0,2.2l-5.4,5.4C15.2,56.7,14.8,56.9,14.4,56.9z"/>
	</g>
	<g>
		<path class="st0" d="M57.6,56.9c-0.4,0-0.8-0.1-1-0.4l-5.4-5.4c-0.6-0.6-0.6-1.5,0-2.2c0.6-0.6,1.5-0.6,2.2,0l5.4,5.4
			c0.6,0.6,0.6,1.5,0,2.2C58.4,56.7,58,56.9,57.6,56.9z"/>
	</g>
	<g>
		<path class="st0" d="M13.3,37.1H6.5c-0.8,0-1.5-0.6-1.5-1.5c0-0.8,0.6-1.5,1.5-1.5h6.8c0.8,0,1.5,0.6,1.5,1.5
			C14.8,36.5,14.2,37.1,13.3,37.1z"/>
	</g>
	<g>
		<path class="st0" d="M64.4,37.1h-8.1c-0.8,0-1.5-0.6-1.5-1.5c0-0.8,0.6-1.5,1.5-1.5h8.1c0.8,0,1.5,0.6,1.5,1.5
			S65.3,37.1,64.4,37.1z"/>
	</g>
</g>
</svg>
